<svg id="svg" xmlns="http://www.w3.org/2000/svg" xmlns:xlink="http://www.w3.org/1999/xlink" width="400" height="400" viewBox="0, 0, 400,400"><g id="svgg"><path id="path0" d="M98.828 0.808 C 46.597 5.955,9.578 22.238,1.547 43.599 C 0.006 47.698,-0.009 49.519,0.190 201.021 L 0.391 354.297 2.690 358.984 C 29.790 414.237,224.706 413.571,250.958 358.136 L 253.516 352.734 253.781 333.398 L 254.046 314.063 271.468 314.063 C 287.451 314.062,289.042 314.186,290.734 315.555 L 292.578 317.047 292.969 341.531 C 293.404 368.821,293.477 369.199,299.346 374.717 C 304.922 379.960,305.389 380.054,327.466 380.321 L 347.511 380.564 348.019 382.665 C 350.505 392.939,362.306 400.480,374.897 399.839 C 405.658 398.273,409.650 354.880,379.739 347.218 C 367.157 343.994,354.145 350.275,348.681 362.211 L 346.760 366.406 329.180 366.406 L 311.599 366.406 309.315 364.123 L 307.031 361.839 307.031 339.655 C 307.031 301.963,305.341 300.000,272.893 300.000 L 253.906 300.000 253.906 253.516 L 253.906 207.031 300.333 207.031 L 346.760 207.031 348.735 211.344 C 353.726 222.246,366.142 228.772,377.796 226.617 C 404.086 221.757,408.438 186.444,384.115 175.343 C 370.684 169.214,352.274 176.729,348.310 189.961 L 347.409 192.969 300.658 192.969 L 253.906 192.969 253.906 160.217 L 253.906 127.466 272.852 127.209 C 306.655 126.752,307.031 126.202,307.031 77.169 L 307.031 44.460 308.949 42.543 L 310.866 40.625 329.177 40.625 L 347.487 40.625 348.001 42.773 C 351.059 55.543,369.261 63.795,382.970 58.627 C 400.827 51.894,405.939 27.773,392.382 14.216 C 379.434 1.268,357.270 5.012,349.142 21.521 L 346.707 26.468 326.674 26.710 L 306.641 26.953 302.956 29.119 C 293.305 34.792,292.969 36.366,292.969 75.836 L 292.969 108.507 291.085 110.699 L 289.201 112.891 271.600 113.127 L 253.999 113.364 253.757 80.296 L 253.516 47.228 250.840 41.778 C 241.215 22.172,211.681 8.481,164.844 1.913 C 154.326 0.438,110.096 -0.302,98.828 0.808 M165.019 16.317 C 215.181 23.789,246.718 42.378,237.935 59.298 C 219.553 94.714,92.448 104.741,34.375 75.356 C -10.729 52.534,23.652 22.630,104.297 14.539 C 113.801 13.586,154.726 14.784,165.019 16.317 M380.080 22.658 C 385.667 26.110,387.691 34.667,384.161 39.905 C 378.803 47.856,367.849 48.257,362.838 40.685 C 355.127 29.033,368.230 15.334,380.080 22.658 M366.406 33.594 L 366.406 40.625 373.438 40.625 L 380.469 40.625 380.469 33.594 L 380.469 26.563 373.438 26.563 L 366.406 26.563 366.406 33.594 M239.451 154.412 C 237.435 168.616,210.846 182.706,174.219 188.980 C 110.951 199.818,35.192 186.692,17.000 161.741 L 14.453 158.248 14.237 118.968 C 14.118 97.364,14.159 79.688,14.329 79.688 C 14.498 79.688,17.056 81.322,20.014 83.321 C 67.408 115.345,190.004 114.659,235.235 82.116 L 239.453 79.081 239.682 115.126 C 239.808 134.951,239.704 152.630,239.451 154.412 M239.681 222.266 C 239.419 253.690,239.617 252.745,231.818 259.841 C 190.624 297.324,41.195 293.260,16.284 253.979 L 14.062 250.475 14.062 215.081 C 14.062 195.615,14.192 179.688,14.350 179.688 C 14.508 179.688,16.977 181.257,19.838 183.175 C 68.793 216.003,188.331 214.805,236.719 181.001 L 239.453 179.091 239.681 187.006 C 239.807 191.360,239.807 207.227,239.681 222.266 M379.749 189.276 C 387.339 194.392,388.119 203.318,381.515 209.498 C 371.778 218.609,356.452 207.728,361.445 195.249 C 364.277 188.170,373.595 185.129,379.749 189.276 M366.406 200.000 L 366.406 207.031 373.438 207.031 L 380.469 207.031 380.469 200.000 L 380.469 192.969 373.438 192.969 L 366.406 192.969 366.406 200.000 M239.679 319.531 C 239.421 353.843,239.657 352.570,232.301 359.424 C 191.714 397.241,41.339 393.486,16.317 354.031 L 14.062 350.475 14.062 311.537 L 14.063 272.598 18.555 275.647 C 67.063 308.568,191.772 308.284,235.547 275.152 L 239.453 272.196 239.679 280.825 C 239.803 285.570,239.803 302.988,239.679 319.531 M380.232 362.738 C 388.004 367.992,387.761 378.762,379.749 384.161 C 374.990 387.368,366.870 386.026,363.260 381.436 C 354.362 370.124,368.355 354.708,380.232 362.738 M366.406 373.438 L 366.406 380.469 373.438 380.469 L 380.469 380.469 380.469 373.438 L 380.469 366.406 373.438 366.406 L 366.406 366.406 366.406 373.438 " stroke="none" fill="#ffffff" fill-rule="evenodd"/></g></svg>