<svg id="svg" xmlns="http://www.w3.org/2000/svg" xmlns:xlink="http://www.w3.org/1999/xlink" width="400" height="400" viewBox="0, 0, 400,400"><g id="svgg"><path id="path0" d="M14.063 14.063 C 11.604 16.521,11.604 158.479,14.062 160.938 C 15.555 162.430,16.667 162.500,38.954 162.500 L 62.283 162.500 62.712 167.232 C 64.297 184.706,76.103 193.020,100.391 193.767 C 124.315 194.502,129.787 198.315,130.980 215.080 L 131.435 221.484 124.307 214.465 L 117.179 207.446 112.300 212.330 L 107.422 217.214 120.749 230.482 C 138.684 248.337,136.316 248.337,154.251 230.482 L 167.578 217.214 162.700 212.330 L 157.821 207.446 150.873 214.362 L 143.924 221.278 143.639 212.397 C 142.940 190.686,132.391 181.971,105.859 181.186 C 84.279 180.548,75.889 175.932,75.798 164.648 L 75.781 162.500 98.828 162.500 C 120.833 162.500,121.946 162.429,123.437 160.938 C 124.969 159.406,125.000 158.333,125.000 106.071 L 125.000 52.768 104.866 32.634 L 84.732 12.500 50.179 12.500 C 16.667 12.500,15.578 12.547,14.063 14.063 M145.313 14.063 C 143.773 15.602,143.750 16.667,143.750 87.500 C 143.750 158.333,143.773 159.398,145.313 160.938 C 146.806 162.431,147.917 162.500,170.313 162.500 L 193.750 162.500 193.742 200.586 L 193.735 238.672 126.750 258.150 C 43.426 282.379,45.530 281.728,44.547 283.565 C 43.486 285.548,43.464 339.412,44.523 341.391 C 45.621 343.443,194.221 387.500,200.043 387.500 C 202.217 387.500,346.641 345.942,352.569 343.611 C 353.767 343.140,355.085 342.123,355.499 341.350 C 356.715 339.077,356.482 284.991,355.248 283.304 C 353.949 281.527,356.891 282.432,275.988 258.927 L 206.272 238.672 206.261 200.586 L 206.250 162.500 229.688 162.500 C 252.083 162.500,253.194 162.431,254.688 160.938 C 256.219 159.406,256.250 158.333,256.250 106.071 L 256.250 52.768 236.116 32.634 L 215.982 12.500 181.429 12.500 C 147.917 12.500,146.828 12.547,145.313 14.063 M276.563 14.063 C 274.104 16.521,274.104 158.479,276.563 160.938 C 278.054 162.429,279.167 162.500,301.172 162.500 L 324.219 162.500 324.202 164.648 C 324.112 175.917,315.733 180.535,294.141 181.219 C 267.526 182.061,257.060 190.698,256.361 212.397 L 256.076 221.278 249.127 214.362 L 242.179 207.446 237.300 212.330 L 232.422 217.214 245.749 230.482 C 263.684 248.337,261.316 248.337,279.251 230.482 L 292.578 217.214 287.700 212.330 L 282.821 207.446 275.693 214.465 L 268.565 221.484 269.020 215.080 C 270.216 198.277,275.579 194.500,299.219 193.812 C 323.856 193.094,335.692 184.831,337.288 167.232 L 337.717 162.500 361.046 162.500 C 383.333 162.500,384.445 162.430,385.938 160.938 C 387.469 159.406,387.500 158.333,387.500 106.071 L 387.500 52.768 367.366 32.634 L 347.232 12.500 312.679 12.500 C 279.167 12.500,278.078 12.547,276.563 14.063 M75.000 42.188 C 75.000 64.585,72.915 62.500,95.313 62.500 L 112.500 62.500 112.500 106.250 L 112.500 150.000 68.750 150.000 L 25.000 150.000 25.000 87.500 L 25.000 25.000 50.000 25.000 L 75.000 25.000 75.000 42.188 M206.250 42.188 C 206.250 64.585,204.165 62.500,226.563 62.500 L 243.750 62.500 243.750 106.250 L 243.750 150.000 200.000 150.000 L 156.250 150.000 156.250 87.500 L 156.250 25.000 181.250 25.000 L 206.250 25.000 206.250 42.188 M337.500 42.188 C 337.500 64.585,335.415 62.500,357.813 62.500 L 375.000 62.500 375.000 106.250 L 375.000 150.000 331.250 150.000 L 287.500 150.000 287.500 87.500 L 287.500 25.000 312.500 25.000 L 337.500 25.000 337.500 42.188 M95.313 42.578 L 102.704 50.000 95.102 50.000 L 87.500 50.000 87.500 42.578 C 87.500 38.496,87.595 35.156,87.711 35.156 C 87.827 35.156,91.247 38.496,95.313 42.578 M226.563 42.578 L 233.954 50.000 226.352 50.000 L 218.750 50.000 218.750 42.578 C 218.750 38.496,218.845 35.156,218.961 35.156 C 219.077 35.156,222.497 38.496,226.563 42.578 M357.813 42.578 L 365.204 50.000 357.602 50.000 L 350.000 50.000 350.000 42.578 C 350.000 38.496,350.095 35.156,350.211 35.156 C 350.327 35.156,353.747 38.496,357.813 42.578 M37.500 56.250 L 37.500 62.500 50.000 62.500 L 62.500 62.500 62.500 56.250 L 62.500 50.000 50.000 50.000 L 37.500 50.000 37.500 56.250 M168.750 56.250 L 168.750 62.500 181.250 62.500 L 193.750 62.500 193.750 56.250 L 193.750 50.000 181.250 50.000 L 168.750 50.000 168.750 56.250 M300.000 56.250 L 300.000 62.500 312.500 62.500 L 325.000 62.500 325.000 56.250 L 325.000 50.000 312.500 50.000 L 300.000 50.000 300.000 56.250 M37.500 81.250 L 37.500 87.500 68.750 87.500 L 100.000 87.500 100.000 81.250 L 100.000 75.000 68.750 75.000 L 37.500 75.000 37.500 81.250 M168.750 81.250 L 168.750 87.500 200.000 87.500 L 231.250 87.500 231.250 81.250 L 231.250 75.000 200.000 75.000 L 168.750 75.000 168.750 81.250 M300.000 81.250 L 300.000 87.500 331.250 87.500 L 362.500 87.500 362.500 81.250 L 362.500 75.000 331.250 75.000 L 300.000 75.000 300.000 81.250 M37.500 106.250 L 37.500 112.500 68.750 112.500 L 100.000 112.500 100.000 106.250 L 100.000 100.000 68.750 100.000 L 37.500 100.000 37.500 106.250 M168.750 106.250 L 168.750 112.500 200.000 112.500 L 231.250 112.500 231.250 106.250 L 231.250 100.000 200.000 100.000 L 168.750 100.000 168.750 106.250 M300.000 106.250 L 300.000 112.500 331.250 112.500 L 362.500 112.500 362.500 106.250 L 362.500 100.000 331.250 100.000 L 300.000 100.000 300.000 106.250 M37.500 131.250 L 37.500 137.500 68.750 137.500 L 100.000 137.500 100.000 131.250 L 100.000 125.000 68.750 125.000 L 37.500 125.000 37.500 131.250 M168.750 131.250 L 168.750 137.500 175.000 137.500 L 181.250 137.500 181.250 131.250 L 181.250 125.000 175.000 125.000 L 168.750 125.000 168.750 131.250 M193.750 131.250 L 193.750 137.500 200.000 137.500 L 206.250 137.500 206.250 131.250 L 206.250 125.000 200.000 125.000 L 193.750 125.000 193.750 131.250 M218.750 131.250 L 218.750 137.500 225.000 137.500 L 231.250 137.500 231.250 131.250 L 231.250 125.000 225.000 125.000 L 218.750 125.000 218.750 131.250 M300.000 131.250 L 300.000 137.500 331.250 137.500 L 362.500 137.500 362.500 131.250 L 362.500 125.000 331.250 125.000 L 300.000 125.000 300.000 131.250 M193.750 268.148 L 193.750 283.952 186.715 276.949 L 179.679 269.946 174.800 274.830 L 169.922 279.714 183.249 292.982 C 196.432 306.106,196.613 306.250,200.000 306.250 C 203.387 306.250,203.568 306.106,216.751 292.982 L 230.078 279.714 225.200 274.830 L 220.321 269.946 213.285 276.949 L 206.250 283.952 206.250 268.240 L 206.250 252.528 223.242 257.492 C 232.588 260.222,259.304 268.003,282.611 274.783 C 305.918 281.562,324.987 287.285,324.986 287.500 C 324.986 287.715,296.874 296.074,262.515 306.077 L 200.045 324.263 137.534 306.077 C 103.152 296.074,75.021 287.715,75.020 287.500 C 75.019 287.285,101.645 279.325,134.189 269.811 C 166.733 260.296,193.447 252.474,193.555 252.428 C 193.662 252.382,193.750 259.456,193.750 268.148 M141.985 321.267 L 193.737 336.328 193.743 354.392 L 193.750 372.455 179.492 368.279 C 171.650 365.981,140.717 356.974,110.751 348.262 L 56.267 332.422 56.259 314.350 L 56.250 296.278 73.242 301.241 C 82.588 303.971,113.522 312.983,141.985 321.267 M343.743 314.258 L 343.737 332.422 291.985 347.483 C 263.522 355.767,232.588 364.779,223.242 367.509 L 206.250 372.472 206.262 354.400 L 206.273 336.328 274.816 316.290 C 312.515 305.270,343.447 296.217,343.555 296.173 C 343.662 296.130,343.747 304.268,343.743 314.258 " stroke="none" fill="#569CD7" fill-rule="evenodd"/></g></svg>