<svg id="Layer_1" data-name="Layer 1" xmlns="http://www.w3.org/2000/svg" viewBox="0 0 120.96 122.88"><defs><style>.cls-1{fill:#ffffff;}.cls-2{fill:none;stroke:#231f20;stroke-linecap:round;stroke-linejoin:round;stroke-width:3.74px;}.cls-3{fill:#ffffff;fill-rule:evenodd;}</style></defs><title>environment</title><path class="cls-1" d="M54,6.38c-1.44.17-2.86.39-4.26.67a51.87,51.87,0,0,0-10.21,3.16,57.53,57.53,0,0,0-9.31,5,52.46,52.46,0,0,0-8,6.58h0a52.46,52.46,0,0,0-6.58,8,57.53,57.53,0,0,0-5,9.31l-.06.14a51,51,0,0,0-2.09,5.9C7.2,44.77,6,44.35,4.78,43.91a8.82,8.82,0,0,0-2-.68,56.33,56.33,0,0,1,2.25-6.3l.06-.16A63.12,63.12,0,0,1,10.7,26.5,59.73,59.73,0,0,1,26.91,10.29,63.12,63.12,0,0,1,37.18,4.71h0a58.07,58.07,0,0,1,11.4-3.53,62.58,62.58,0,0,1,24.19,0A58.28,58.28,0,0,1,84,4.65l.16.06a63.12,63.12,0,0,1,10.27,5.58A59.73,59.73,0,0,1,110.67,26.5a63.12,63.12,0,0,1,5.58,10.27v0a58.47,58.47,0,0,1,3.54,11.39,63.15,63.15,0,0,1,0,24.2,57.53,57.53,0,0,1-3.48,11.24l-.06.16a63.12,63.12,0,0,1-5.58,10.27,59.73,59.73,0,0,1-16.21,16.21,63.12,63.12,0,0,1-10.27,5.58h0a58.61,58.61,0,0,1-10.8,3.41c-.23-.88-.52-1.8-.85-2.8-.4-1.22-.73-2.15-1-2.93l.12,0a51.66,51.66,0,0,0,10.21-3.16,57.53,57.53,0,0,0,9.31-5,52.46,52.46,0,0,0,8-6.58h0a52.46,52.46,0,0,0,6.58-8,57.53,57.53,0,0,0,5-9.31l.06-.14a51.76,51.76,0,0,0,3.1-10.07A55.18,55.18,0,0,0,115,60.28a56,56,0,0,0-.58-8.15c-1.21,2.44-1.57,9.19-1.57,10.65l-3,.92h-.45L106.88,56l-1.95-6.16-6.6,11.87-2.19,1.38-2.28-12.8-4.34-3.08L77.2,45.05c2.87,7.42,12.85,13.71-3,17,1.27,3.82,8.71.55,1.66,9.77q-3.37,4.4-5.3,7.36l1.13,8.23c.12.91-.49,1.85-1.93,2.8l-.09.06C67,65.3,50.14,57.08,31.2,51.49a10.53,10.53,0,0,1,4.32-5.85c4.56-6.57,7.92-8.34,15.3-8.34v4.44l6.27,2.75.59-2.75A10.16,10.16,0,0,1,61,43c1.77,1.14,6.71,1.55,7.19-1.21A21.33,21.33,0,0,0,68.51,38l-5,.45C61.2,33.62,55.4,34.19,49,27.49,27.35,35.27,39.4,30,39.4,23.05l9.26-4.23c-.83-7.31-.92-.56-2.28-7.19a46.69,46.69,0,0,0,6-4.05c.59-.46,1.15-.86,1.66-1.2ZM73,7.34c-.44-.11-.89-.2-1.34-.29-1.67-.33-3.38-.59-5.11-.77A10.62,10.62,0,0,0,73,7.34Z"/><path class="cls-2" d="M13.07,90.72a48.8,48.8,0,0,1-4.41-8.06,53.36,53.36,0,0,1-3-8.84l10.06,4.81c.17,4.62-2.46,7.34-2.69,12.09Z"/><path d="M13.07,90.72a48.8,48.8,0,0,1-4.41-8.06,53.36,53.36,0,0,1-3-8.84l10.06,4.81c.17,4.62-2.46,7.34-2.69,12.09Z"/><path class="cls-3" d="M60,111.45c2.83,4.06,3,3.86,4.29,7.68s1.72,5.43-1.21,1.51c-2.74-3.66-3-3.63-6.83-7l-.89.16C19.85,119.57-5.3,102.83,1,51.71,27.8,62,66.4,59.52,60.78,107.58a13.06,13.06,0,0,1-.79,3.87Zm-9.2-8C42.57,84,20,76.71,9.17,63.27c11.46,24.33,18.18,23.5,41.62,40.15Z"/></svg>